<svg width="58" height="39" viewBox="0 0 58 39" fill="none" xmlns="http://www.w3.org/2000/svg">
<ellipse cx="19" cy="19.5" rx="19" ry="19.5" fill="#25143E"/>
<ellipse cx="29" cy="19.5" rx="19" ry="19.5" fill="#3D1462"/>
<ellipse cx="39" cy="19.5" rx="19" ry="19.5" fill="#67169E"/>
<path fill-rule="evenodd" clip-rule="evenodd" d="M39.0026 8.30212C36.2699 8.30212 34.0547 10.5174 34.0547 13.25C34.0547 15.9827 36.2699 18.198 39.0026 18.198C41.7353 18.198 43.9505 15.9827 43.9505 13.25C43.9505 10.5174 41.7353 8.30212 39.0026 8.30212ZM35.6172 13.25C35.6172 11.3803 37.1329 9.86462 39.0026 9.86462C40.8723 9.86462 42.388 11.3803 42.388 13.25C42.388 15.1198 40.8723 16.6355 39.0026 16.6355C37.1329 16.6355 35.6172 15.1198 35.6172 13.25Z" fill="white"/>
<path fill-rule="evenodd" clip-rule="evenodd" d="M35.8776 19.7605C33.1449 19.7605 30.9297 21.9757 30.9297 24.7084C30.9297 27.441 33.1449 29.6563 35.8776 29.6563H42.1276C44.8603 29.6563 47.0755 27.441 47.0755 24.7084C47.0755 21.9757 44.8603 19.7605 42.1276 19.7605H35.8776ZM32.4922 24.7084C32.4922 22.8387 34.0079 21.323 35.8776 21.323H42.1276C43.9973 21.323 45.513 22.8387 45.513 24.7084C45.513 26.5781 43.9973 28.0938 42.1276 28.0938H35.8776C34.0079 28.0938 32.4922 26.5781 32.4922 24.7084Z" fill="white"/>
</svg>
