<svg width="58" height="39" viewBox="0 0 58 39" fill="none" xmlns="http://www.w3.org/2000/svg">
<ellipse cx="19" cy="19.5" rx="19" ry="19.5" fill="#25143E"/>
<ellipse cx="29" cy="19.5" rx="19" ry="19.5" fill="#3D1462"/>
<ellipse cx="39" cy="19.5" rx="19" ry="19.5" fill="#67169E"/>
<path d="M32.7198 8.91208C33.0567 8.64255 33.1114 8.15091 32.8418 7.81399C32.5723 7.47706 32.0807 7.42244 31.7437 7.69198L29.1396 9.77531C28.8026 10.0448 28.748 10.5365 29.0176 10.8734C29.2871 11.2103 29.7787 11.265 30.1156 10.9954L32.7198 8.91208Z" fill="white"/>
<path d="M46.2615 7.69198C45.9246 7.42244 45.4329 7.47706 45.1634 7.81399C44.8938 8.15091 44.9485 8.64255 45.2854 8.91208L47.8896 10.9954C48.2265 11.265 48.7181 11.2103 48.9877 10.8734C49.2572 10.5365 49.2026 10.0448 48.8656 9.77531L46.2615 7.69198Z" fill="white"/>
<path d="M39.7839 14.2916C39.7839 13.8601 39.4341 13.5104 39.0026 13.5104C38.5711 13.5104 38.2214 13.8601 38.2214 14.2916V19.4999C38.2215 20.2426 39.1193 20.6145 39.6444 20.0894L41.7648 17.969C42.0699 17.6639 42.0699 17.1693 41.7648 16.8642C41.4597 16.5591 40.965 16.5591 40.6599 16.8642L39.7839 17.7402V14.2916Z" fill="white"/>
<path fill-rule="evenodd" clip-rule="evenodd" d="M39.0026 8.30203C32.8182 8.30203 27.8047 13.3155 27.8047 19.4999C27.8047 25.6844 32.8182 30.6979 39.0026 30.6979C45.187 30.6979 50.2005 25.6844 50.2005 19.4999C50.2005 13.3155 45.187 8.30203 39.0026 8.30203ZM29.3672 19.4999C29.3672 14.1785 33.6811 9.86453 39.0026 9.86453C44.3241 9.86453 48.638 14.1785 48.638 19.4999C48.638 24.8214 44.3241 29.1354 39.0026 29.1354C33.6811 29.1354 29.3672 24.8214 29.3672 19.4999Z" fill="white"/>
</svg>
