<svg width="58" height="39" viewBox="0 0 58 39" fill="none" xmlns="http://www.w3.org/2000/svg">
<ellipse cx="19" cy="19.5" rx="19" ry="19.5" fill="#25143E"/>
<ellipse cx="29" cy="19.5" rx="19" ry="19.5" fill="#3D1462"/>
<ellipse cx="39" cy="19.5" rx="19" ry="19.5" fill="#67169E"/>
<path fill-rule="evenodd" clip-rule="evenodd" d="M39 29.1354C37.4764 29.1354 36.1136 28.4467 35.206 27.3637C34.6327 28.419 33.5146 29.1354 32.2292 29.1354C30.3595 29.1354 28.8438 27.6197 28.8438 25.75V17.4166C28.8438 15.5469 30.3595 14.0312 32.2292 14.0312C33.5233 14.0312 34.6477 14.7573 35.2175 15.8243C35.3106 15.6712 35.4108 15.5083 35.5189 15.3327L37.8924 11.4759C38.3094 10.7982 39.0482 10.3854 39.8439 10.3854C41.2483 10.3854 42.3222 11.6372 42.1087 13.0252L41.8555 14.6708C41.6544 15.9777 42.6655 17.1562 43.9877 17.1562H44.7062C47.9297 17.1562 50.0263 20.5485 48.5847 23.4317L47.3883 25.8244C46.3737 27.8536 44.2998 29.1354 42.0311 29.1354H39ZM39.2231 12.2948C39.3557 12.0792 39.5908 11.9479 39.8439 11.9479C40.2906 11.9479 40.6323 12.3461 40.5643 12.7876L40.3112 14.4332C39.9645 16.6866 41.7079 18.7187 43.9877 18.7187H44.7062C46.7682 18.7187 48.1093 20.8886 47.1871 22.7329L45.9908 25.1256C45.2409 26.6255 43.7079 27.5729 42.0311 27.5729H39C37.1303 27.5729 35.6146 26.0572 35.6146 24.1875V20.6105C35.6146 19.3859 35.6191 18.8933 35.7255 18.4269C35.7593 18.2786 35.8008 18.1322 35.8497 17.9882C36.0035 17.5352 36.2578 17.1133 36.8996 16.0704L39.2231 12.2948ZM32.2292 15.5937C33.2359 15.5937 34.0521 16.4099 34.0521 17.4166V25.75C34.0521 26.7567 33.2359 27.5729 32.2292 27.5729C31.2224 27.5729 30.4062 26.7567 30.4062 25.75V17.4166C30.4062 16.4099 31.2224 15.5937 32.2292 15.5937Z" fill="white"/>
</svg>
