<svg width="58" height="39" viewBox="0 0 58 39" fill="none" xmlns="http://www.w3.org/2000/svg">
<ellipse cx="19" cy="19.5" rx="19" ry="19.5" fill="#25143E"/>
<ellipse cx="29" cy="19.5" rx="19" ry="19.5" fill="#3D1462"/>
<ellipse cx="39" cy="19.5" rx="19" ry="19.5" fill="#67169E"/>
<path fill-rule="evenodd" clip-rule="evenodd" d="M35.8802 16.3731C36.3014 13.7828 37.0631 11.1477 37.4281 9.96084C37.9401 9.87702 38.466 9.83337 39.0026 9.83337C39.5392 9.83337 40.0651 9.87702 40.5771 9.96084C40.9422 11.1477 41.7038 13.7828 42.125 16.3731C41.0241 16.552 39.9471 16.6667 39.0026 16.6667C38.0581 16.6667 36.9811 16.552 35.8802 16.3731ZM43.6003 16.1006C43.2487 13.9521 42.6781 11.7952 42.2738 10.4007C44.5922 11.2344 46.5012 12.9299 47.6129 15.1012C46.5748 15.4007 45.1306 15.7866 43.6003 16.1006ZM43.8054 17.5896C45.5048 17.2449 47.1012 16.8132 48.1932 16.4947C48.5021 17.4399 48.6693 18.4498 48.6693 19.5C48.6693 20.0366 48.6256 20.5626 48.5418 21.0745C47.5957 21.3656 45.7245 21.9101 43.6879 22.3325C43.8289 21.3585 43.9193 20.3891 43.9193 19.5C43.9193 18.8912 43.8769 18.2462 43.8054 17.5896ZM43.4187 23.9161C45.2123 23.5702 46.927 23.1119 48.102 22.7712C47.1286 25.4782 44.9807 27.6261 42.2738 28.5994C42.6144 27.4244 43.0727 25.7097 43.4187 23.9161ZM41.8351 24.1853C41.4127 26.2219 40.8681 28.0931 40.5771 29.0392C40.0651 29.1231 39.5392 29.1667 39.0026 29.1667C38.466 29.1667 37.9401 29.1231 37.4281 29.0392C37.1371 28.0931 36.5925 26.2219 36.1701 24.1853C37.1441 24.3263 38.1135 24.4167 39.0026 24.4167C39.8917 24.4167 40.8611 24.3263 41.8351 24.1853ZM34.5865 23.9161C34.9325 25.7097 35.3908 27.4244 35.7314 28.5994C33.0245 27.6261 30.8766 25.4782 29.9032 22.7712C31.0782 23.1119 32.7929 23.5702 34.5865 23.9161ZM34.3173 22.3325C32.2807 21.9101 30.4095 21.3656 29.4634 21.0745C29.3796 20.5626 29.3359 20.0366 29.3359 19.5C29.3359 18.4498 29.5031 17.4399 29.812 16.4947C30.904 16.8132 32.5004 17.2449 34.1998 17.5896C34.1283 18.2462 34.0859 18.8912 34.0859 19.5C34.0859 20.3891 34.1763 21.3585 34.3173 22.3325ZM34.4049 16.1006C32.8746 15.7866 31.4304 15.4007 30.3923 15.1012C31.504 12.9299 33.413 11.2344 35.7314 10.4007C35.3271 11.7952 34.7565 13.9521 34.4049 16.1006ZM35.5859 19.5C35.5859 18.9882 35.6197 18.4359 35.6795 17.8602C36.817 18.0436 37.9648 18.1667 39.0026 18.1667C40.0404 18.1667 41.1882 18.0436 42.3257 17.8602C42.3855 18.4359 42.4193 18.9882 42.4193 19.5C42.4193 20.4442 42.3046 21.5212 42.1256 22.623C41.0238 22.8021 39.9467 22.9167 39.0026 22.9167C38.0585 22.9167 36.9814 22.8021 35.8796 22.623C35.7006 21.5212 35.5859 20.4442 35.5859 19.5ZM39.0026 8.33337C38.2114 8.33337 37.4385 8.41579 36.6925 8.57276C33.0374 9.34187 30.0432 11.8962 28.661 15.2802C28.1289 16.5831 27.8359 18.0083 27.8359 19.5C27.8359 20.2913 27.9184 21.0641 28.0753 21.8101C28.9831 26.1241 32.3785 29.5196 36.6925 30.4273C37.4385 30.5843 38.2114 30.6667 39.0026 30.6667C39.7939 30.6667 40.5667 30.5843 41.3127 30.4273C45.6267 29.5196 49.0221 26.1241 49.9299 21.8101C50.0869 21.0641 50.1693 20.2913 50.1693 19.5C50.1693 18.0095 49.8768 16.5853 49.3454 15.2833C47.9639 11.8977 44.9689 9.3421 41.3127 8.57276C40.5667 8.41579 39.7939 8.33337 39.0026 8.33337Z" fill="white"/>
</svg>
