<svg width="48" height="47" viewBox="0 0 48 47" fill="none" xmlns="http://www.w3.org/2000/svg">
<rect x="0.5" width="47" height="47" rx="23.5" fill="url(#paint0_linear_12022_691)"/>
<path d="M25.0324 16.4255C24.6301 16.3271 24.2241 16.5735 24.1257 16.9758C24.0273 17.3782 24.2737 17.7841 24.676 17.8825L27.0871 18.4723C28.0657 18.7116 28.7377 18.8772 29.2354 19.0606C29.3971 19.1202 29.5302 19.1782 29.6411 19.2359L16.7571 26.9774C16.4021 27.1908 16.2872 27.6515 16.5005 28.0066C16.7139 28.3616 17.1746 28.4765 17.5297 28.2632L30.4137 20.5217C30.4126 20.6467 30.4013 20.7915 30.378 20.9623C30.3063 21.4878 30.137 22.1589 29.8889 23.1353L29.2777 25.541C29.1757 25.9425 29.4185 26.3506 29.8199 26.4526C30.2214 26.5546 30.6295 26.3118 30.7315 25.9104L31.3538 23.4613C31.5881 22.5389 31.7797 21.785 31.8643 21.165C31.9522 20.5203 31.9398 19.927 31.689 19.3566C31.634 19.2316 31.5712 19.1103 31.501 18.9934C31.4307 18.8766 31.3531 18.7642 31.2685 18.6569C30.8826 18.1677 30.3646 17.8782 29.7541 17.6531C29.167 17.4368 28.4114 17.252 27.4869 17.0259L25.0324 16.4255Z" fill="white" fill-opacity="0.7"/>
<defs>
<linearGradient id="paint0_linear_12022_691" x1="0.5" y1="23.5" x2="47.5" y2="23.5" gradientUnits="userSpaceOnUse">
<stop stop-color="#67169E"/>
<stop offset="1" stop-color="#260040"/>
</linearGradient>
</defs>
</svg>
