<svg width="47" height="48" viewBox="0 0 47 48" fill="none" xmlns="http://www.w3.org/2000/svg">
<rect y="0.5" width="47" height="47" rx="23.5" fill="white"/>
<path d="M24.5324 16.9256C24.1301 16.8271 23.7241 17.0735 23.6257 17.4759C23.5273 17.8782 23.7737 18.2842 24.176 18.3826L26.5871 18.9723C27.5657 19.2117 28.2377 19.3772 28.7354 19.5607C28.8971 19.6203 29.0302 19.6783 29.1411 19.736L16.2571 27.4775C15.9021 27.6908 15.7872 28.1516 16.0005 28.5067C16.2139 28.8617 16.6746 28.9766 17.0297 28.7633L29.9137 21.0218C29.9126 21.1468 29.9013 21.2916 29.878 21.4624C29.8063 21.9879 29.637 22.659 29.3889 23.6353L28.7777 26.0411C28.6757 26.4425 28.9185 26.8507 29.3199 26.9527C29.7214 27.0547 30.1295 26.8119 30.2315 26.4104L30.8538 23.9614C31.0881 23.039 31.2797 22.2851 31.3643 21.6651C31.4522 21.0204 31.4398 20.4271 31.189 19.8567C31.134 19.7316 31.0712 19.6103 31.001 19.4935C30.9307 19.3766 30.8531 19.2642 30.7685 19.157C30.3826 18.6677 29.8646 18.3782 29.2541 18.1532C28.667 17.9368 27.9114 17.752 26.9869 17.5259L24.5324 16.9256Z" fill="url(#paint0_linear_12008_3077)"/>
<defs>
<linearGradient id="paint0_linear_12008_3077" x1="16.0005" y1="28.5067" x2="31.001" y2="19.4935" gradientUnits="userSpaceOnUse">
<stop stop-color="#67169E"/>
<stop offset="1" stop-color="#260040"/>
</linearGradient>
</defs>
</svg>
