<svg width="58" height="39" viewBox="0 0 58 39" fill="none" xmlns="http://www.w3.org/2000/svg">
<ellipse cx="19" cy="19.5" rx="19" ry="19.5" fill="#25143E"/>
<ellipse cx="29" cy="19.5" rx="19" ry="19.5" fill="#3D1462"/>
<ellipse cx="39" cy="19.5" rx="19" ry="19.5" fill="#67169E"/>
<g clip-path="url(#clip0_12008_3103)">
<path fill-rule="evenodd" clip-rule="evenodd" d="M38.9974 11.1665C36.84 11.1665 35.0911 12.9154 35.0911 15.0728C35.0911 17.2301 36.84 18.979 38.9974 18.979C41.1548 18.979 42.9036 17.2301 42.9036 15.0728C42.9036 12.9154 41.1548 11.1665 38.9974 11.1665ZM36.6536 15.0728C36.6536 13.7783 37.703 12.729 38.9974 12.729C40.2918 12.729 41.3411 13.7783 41.3411 15.0728C41.3411 16.3672 40.2918 17.4165 38.9974 17.4165C37.703 17.4165 36.6536 16.3672 36.6536 15.0728Z" fill="white"/>
<path fill-rule="evenodd" clip-rule="evenodd" d="M35.8724 20.5415C33.715 20.5415 31.9661 22.2904 31.9661 24.4478C31.9661 26.6051 33.715 28.354 35.8724 28.354H42.1224C44.2798 28.354 46.0286 26.6051 46.0286 24.4478C46.0286 22.2904 44.2798 20.5415 42.1224 20.5415H35.8724ZM33.5286 24.4478C33.5286 23.1533 34.578 22.104 35.8724 22.104H42.1224C43.4168 22.104 44.4661 23.1533 44.4661 24.4478C44.4661 25.7422 43.4168 26.7915 42.1224 26.7915H35.8724C34.578 26.7915 33.5286 25.7422 33.5286 24.4478Z" fill="white"/>
<path d="M34.5725 17.8214C34.4082 17.5574 34.1 17.4165 33.7891 17.4165C32.4946 17.4165 31.4453 16.3672 31.4453 15.0728C31.4453 13.7783 32.4946 12.729 33.7891 12.729C34.1 12.729 34.4082 12.5881 34.5725 12.3242C34.5798 12.3125 34.5871 12.3008 34.5945 12.2892C34.868 11.8574 34.7294 11.2461 34.2214 11.1902C34.0794 11.1745 33.9352 11.1665 33.7891 11.1665C31.6317 11.1665 29.8828 12.9154 29.8828 15.0728C29.8828 17.2301 31.6317 18.979 33.7891 18.979C33.9352 18.979 34.0794 18.971 34.2214 18.9554C34.7294 18.8994 34.868 18.2881 34.5945 17.8563C34.5871 17.8447 34.5798 17.833 34.5725 17.8214Z" fill="white"/>
<path d="M31.4019 26.0799C31.2836 25.8826 31.0749 25.7498 30.8449 25.7498H30.6641C29.3696 25.7498 28.3203 24.7005 28.3203 23.4061C28.3203 22.1117 29.3696 21.0623 30.6641 21.0623H30.8449C31.0749 21.0623 31.2836 20.9295 31.4019 20.7323C31.6905 20.2507 31.3773 19.4998 30.8158 19.4998H30.6641C28.5067 19.4998 26.7578 21.2487 26.7578 23.4061C26.7578 25.5634 28.5067 27.3123 30.6641 27.3123H30.8158C31.3773 27.3123 31.6905 26.5615 31.4019 26.0799Z" fill="white"/>
<path d="M43.4003 17.8563C43.1268 18.2881 43.2654 18.8994 43.7734 18.9554C43.9154 18.971 44.0596 18.979 44.2057 18.979C46.3631 18.979 48.112 17.2301 48.112 15.0728C48.112 12.9154 46.3631 11.1665 44.2057 11.1665C44.0596 11.1665 43.9154 11.1745 43.7734 11.1902C43.2654 11.2461 43.1268 11.8574 43.4003 12.2892C43.4077 12.3008 43.415 12.3125 43.4222 12.3242C43.5865 12.5881 43.8948 12.729 44.2057 12.729C45.5001 12.729 46.5495 13.7783 46.5495 15.0728C46.5495 16.3672 45.5001 17.4165 44.2057 17.4165C43.8948 17.4165 43.5865 17.5574 43.4222 17.8214C43.415 17.833 43.4077 17.8447 43.4003 17.8563Z" fill="white"/>
<path d="M46.5929 26.0799C46.3043 26.5615 46.6175 27.3123 47.179 27.3123H47.3307C49.4881 27.3123 51.237 25.5634 51.237 23.4061C51.237 21.2487 49.4881 19.4998 47.3307 19.4998H47.179C46.6175 19.4998 46.3043 20.2507 46.5929 20.7323C46.7112 20.9295 46.9199 21.0623 47.1499 21.0623H47.3307C48.6251 21.0623 49.6745 22.1117 49.6745 23.4061C49.6745 24.7005 48.6251 25.7498 47.3307 25.7498H47.1499C46.9199 25.7498 46.7112 25.8826 46.5929 26.0799Z" fill="white"/>
</g>
<defs>
<clipPath id="clip0_12008_3103">
<rect width="25" height="25" fill="white" transform="translate(26.5 7)"/>
</clipPath>
</defs>
</svg>
