<svg width="58" height="39" viewBox="0 0 58 39" fill="none" xmlns="http://www.w3.org/2000/svg">
<ellipse cx="19" cy="19.5" rx="19" ry="19.5" fill="#25143E"/>
<ellipse cx="29" cy="19.5" rx="19" ry="19.5" fill="#3D1462"/>
<ellipse cx="39" cy="19.5" rx="19" ry="19.5" fill="#67169E"/>
<path d="M42.7841 19.6186C42.3526 19.6186 42.0029 19.9683 42.0029 20.3998C42.0029 20.8313 42.3526 21.1811 42.7841 21.1811H45.625C46.0565 21.1811 46.4063 20.8313 46.4063 20.3998C46.4063 19.9683 46.0565 19.6186 45.625 19.6186H42.7841Z" fill="white"/>
<path fill-rule="evenodd" clip-rule="evenodd" d="M46.9624 10.5184C47.043 10.9808 47.0625 11.5304 47.0679 12.1592C47.1583 12.2063 47.247 12.2565 47.3341 12.3099C48.14 12.8038 48.8177 13.4814 49.3115 14.2873C49.8553 15.1746 50.053 16.203 50.1347 17.5102C50.1942 18.4611 50.1942 19.6177 50.1942 21.0382V21.0676C50.1942 21.8822 50.1942 22.6079 50.1834 23.2537C50.1501 25.2619 50.02 26.6819 49.3115 27.8381C48.8177 28.644 48.14 29.3216 47.3341 29.8155C46.5645 30.2871 45.6915 30.4973 44.6253 30.5986C43.5793 30.6981 42.27 30.6981 40.5998 30.6981H37.3927C35.7226 30.6981 34.4132 30.6981 33.3672 30.5986C32.301 30.4973 31.428 30.2871 30.6584 29.8155C29.8524 29.3216 29.1748 28.644 28.6809 27.8381C28.2093 27.0684 27.9991 26.1954 27.8978 25.1292C27.7983 24.0832 27.7983 22.7739 27.7983 21.1037L27.7984 20.556C27.7847 20.0413 27.7889 19.4658 27.7934 18.8453C27.7958 18.5183 27.7983 18.1787 27.7983 17.8289L27.7983 17.7838C27.7983 16.0002 27.7983 14.6004 27.9138 13.4894C28.0315 12.3563 28.2764 11.4321 28.8287 10.6396C29.1623 10.1608 29.5671 9.73842 30.0289 9.38864C30.798 8.80611 31.698 8.54714 32.7955 8.42318C33.8662 8.30223 35.2133 8.30224 36.9196 8.30225L42.6155 8.30225C43.4474 8.30221 44.1524 8.30218 44.7145 8.38097C45.3149 8.46512 45.8658 8.65232 46.3067 9.11191C46.6893 9.51085 46.8706 9.99212 46.9624 10.5184ZM42.5606 9.86475C43.4624 9.86475 44.0568 9.86655 44.4976 9.92834C44.9125 9.98649 45.0739 10.0839 45.1791 10.1935C45.2763 10.2949 45.364 10.448 45.4231 10.7867C45.4626 11.0132 45.4841 11.29 45.4955 11.6441C45.0656 11.5654 44.6015 11.5169 44.0961 11.4857C43.1482 11.4272 41.9962 11.4272 40.5829 11.4273H37.3927C35.7225 11.4272 34.4132 11.4272 33.3672 11.5267C32.301 11.6281 31.428 11.8383 30.6584 12.3099C30.2435 12.5641 29.8626 12.867 29.5233 13.2111C29.6376 12.4535 29.8249 11.9429 30.1106 11.533C30.3518 11.1868 30.6429 10.8837 30.9723 10.6342C31.4283 10.2888 32.0146 10.0838 32.9709 9.9758C33.9437 9.86592 35.2026 9.86475 36.9682 9.86475H42.5606ZM31.4748 13.6421C31.9576 13.3462 32.5633 13.1727 33.5151 13.0822C34.4785 12.9906 35.7137 12.9898 37.4337 12.9898H40.5587C42.001 12.9898 43.1055 12.9901 43.9999 13.0453C44.8934 13.1004 45.5181 13.2079 46.0105 13.3949C46.195 13.4649 46.3619 13.5466 46.5177 13.6421C47.1134 14.0072 47.6142 14.508 47.9793 15.1037C48.2362 15.5229 48.3998 16.0325 48.4979 16.7776H42.7841C40.7836 16.7776 39.162 18.3993 39.162 20.3998C39.162 22.4003 40.7836 24.022 42.7841 24.022H48.5997C48.5395 25.5431 48.3735 26.3783 47.9793 27.0216C47.6142 27.6173 47.1134 28.1182 46.5177 28.4832C46.0349 28.7791 45.4292 28.9527 44.4774 29.0432C43.5139 29.1348 42.2788 29.1356 40.5587 29.1356H37.4337C35.7137 29.1356 34.4785 29.1348 33.5151 29.0432C32.5633 28.9527 31.9576 28.7791 31.4748 28.4832C30.8791 28.1182 30.3782 27.6173 30.0132 27.0216C29.7173 26.5388 29.5437 25.9332 29.4532 24.9813C29.3616 24.0179 29.3608 22.7827 29.3608 21.0627C29.3608 19.3426 29.3616 18.1075 29.4532 17.144C29.5437 16.1922 29.7173 15.5865 30.0132 15.1037C30.3782 14.508 30.8791 14.0072 31.4748 13.6421ZM40.7245 20.3998C40.7245 19.2623 41.6466 18.3401 42.7841 18.3401H48.6083C48.6315 19.0942 48.6317 19.9839 48.6317 21.0627C48.6317 21.5667 48.6316 22.0304 48.6292 22.4595H42.7841C41.6466 22.4595 40.7245 21.5373 40.7245 20.3998Z" fill="white"/>
</svg>
