<svg width="70" height="20" viewBox="0 0 70 20" fill="none" xmlns="http://www.w3.org/2000/svg">
<path d="M62.5786 0V9.62552H62.6233C62.8916 9.20702 63.2047 8.74447 63.473 8.37002L66.134 4.91188H69.4434L65.3961 9.29513L70.0025 15.6387H66.6259L63.4954 10.903L62.5786 11.9823V15.6387H59.8281V0H62.5786Z" fill="white"/>
<path d="M57.5299 11.0353H50.2402C50.3073 12.9736 51.8278 13.8106 53.5944 13.8106C54.8689 13.8106 55.7634 13.6124 56.6131 13.326L57.0156 15.1763C56.0764 15.5727 54.7795 15.8591 53.2142 15.8591C49.6812 15.8591 47.6016 13.7225 47.6016 10.4406C47.6016 7.46703 49.4352 4.66968 52.9235 4.66968C56.4566 4.66968 57.6194 7.5331 57.6194 9.88993C57.6194 10.3965 57.5746 10.793 57.5299 11.0353ZM50.2402 9.14103H55.0255C55.0478 8.14984 54.6006 6.51989 52.767 6.51989C51.0675 6.51989 50.352 8.03971 50.2402 9.14103Z" fill="#9567B8"/>
<path d="M46.0065 11.0353H38.7167C38.7838 12.9736 40.3044 13.8106 42.0709 13.8106C43.3455 13.8106 44.24 13.6124 45.0897 13.326L45.4922 15.1763C44.553 15.5727 43.2561 15.8591 41.6908 15.8591C38.1577 15.8591 36.0781 13.7225 36.0781 10.4406C36.0781 7.46703 37.9117 4.66968 41.4001 4.66968C44.9332 4.66968 46.0959 7.5331 46.0959 9.88993C46.0959 10.3965 46.0512 10.793 46.0065 11.0353ZM38.7167 9.14103H43.502C43.5244 8.14984 43.0772 6.51989 41.2436 6.51989C39.5441 6.51989 38.8286 8.03971 38.7167 9.14103Z" fill="#9567B8"/>
<path d="M34.4752 11.0353H27.1855C27.2526 12.9736 28.7731 13.8106 30.5397 13.8106C31.8143 13.8106 32.7087 13.6124 33.5584 13.326L33.9609 15.1763C33.0218 15.5727 31.7248 15.8591 30.1595 15.8591C26.6265 15.8591 24.5469 13.7225 24.5469 10.4406C24.5469 7.46703 26.3805 4.66968 29.8688 4.66968C33.4019 4.66968 34.5647 7.5331 34.5647 9.88993C34.5647 10.3965 34.52 10.793 34.4752 11.0353ZM27.1855 9.14103H31.9708C31.9931 8.14984 31.5459 6.51989 29.7123 6.51989C28.0129 6.51989 27.2973 8.03971 27.1855 9.14103Z" fill="#9567B8"/>
<path d="M12.1598 20V8.48024C12.1598 7.07055 12.115 5.92518 12.0703 4.91197H14.4853L14.6195 6.56394H14.6642C15.4692 5.3525 16.7438 4.66968 18.3985 4.66968C20.903 4.66968 22.9826 6.78421 22.9826 10.1322C22.9826 14.0089 20.5005 15.8811 18.0184 15.8811C16.6544 15.8811 15.5139 15.3084 14.9549 14.4494H14.9102V20H12.1598ZM14.9102 9.49345V11.1454C14.9102 11.4097 14.9325 11.652 14.9773 11.8943C15.268 12.9956 16.2295 13.7886 17.4146 13.7886C19.1588 13.7886 20.1874 12.3569 20.1874 10.2423C20.1874 8.34808 19.2482 6.80623 17.4817 6.80623C16.3413 6.80623 15.2903 7.62121 14.9996 8.81063C14.9549 9.0309 14.9102 9.27319 14.9102 9.49345Z" fill="white"/>
<path d="M0 14.934L0.626113 12.6873C1.4982 13.1939 2.86223 13.6344 4.27098 13.6344C6.01516 13.6344 6.99905 12.8195 6.99905 11.608C6.99905 10.4847 6.23877 9.82388 4.33807 9.14106C1.83362 8.26001 0.245973 6.96045 0.245973 4.8239C0.245973 2.37897 2.3032 0.550781 5.59029 0.550781C7.22266 0.550781 8.4078 0.903204 9.19044 1.29968L8.54197 3.48029C7.98294 3.19395 6.93196 2.77544 5.52321 2.77544C3.77904 2.77544 3.04112 3.67852 3.04112 4.55958C3.04112 5.70495 3.91321 6.23358 5.92571 7.00451C8.54197 7.97367 9.7942 9.27322 9.7942 11.4098C9.7942 13.8107 7.96058 15.8811 4.09209 15.8811C2.48209 15.8811 0.827363 15.4406 0 14.934Z" fill="white"/>
</svg>
