<svg width="58" height="39" viewBox="0 0 58 39" fill="none" xmlns="http://www.w3.org/2000/svg">
<ellipse cx="19" cy="19.5" rx="19" ry="19.5" fill="#25143E"/>
<ellipse cx="29" cy="19.5" rx="19" ry="19.5" fill="#3D1462"/>
<ellipse cx="39" cy="19.5" rx="19" ry="19.5" fill="#67169E"/>
<path fill-rule="evenodd" clip-rule="evenodd" d="M39.0022 7.26044C35.7853 7.26044 33.1608 9.79639 33.0186 12.9782C32.9921 12.9897 32.9656 13.0015 32.9393 13.0136C31.8919 13.4937 31.0053 14.2657 30.3857 15.2371C30.2239 15.4907 30.0899 15.758 29.9756 16.0465C29.5867 17.0277 29.4069 18.3227 29.1453 20.2072L29.1232 20.3666C28.9003 21.9708 28.7262 23.2249 28.6732 24.2351C28.6195 25.2607 28.6845 26.1155 28.9931 26.9001C29.4973 28.1827 30.4285 29.2521 31.6294 29.928C32.3642 30.3415 33.2019 30.5235 34.2251 30.6114C35.233 30.6979 36.4991 30.6979 38.1188 30.6979H39.8856C41.5052 30.6979 42.7713 30.6979 43.7792 30.6114C44.8025 30.5235 45.6401 30.3415 46.3749 29.928C47.5759 29.2521 48.507 28.1827 49.0113 26.9001C49.3198 26.1155 49.3848 25.2607 49.3311 24.2351C49.2782 23.2249 49.104 21.9708 48.8812 20.3664L48.8558 20.1837C48.5788 18.1878 48.3932 16.8509 47.9416 15.8393C47.8473 15.6281 47.7408 15.4285 47.6187 15.2371C46.999 14.2657 46.1124 13.4937 45.0651 13.0136C45.0387 13.0015 45.0123 12.9897 44.9857 12.9782C44.8436 9.79639 42.219 7.26044 39.0022 7.26044ZM38.0086 12.4688C36.599 12.4686 35.5149 12.4685 34.6264 12.5741C34.9518 10.4499 36.787 8.82294 39.0022 8.82294C41.2173 8.82294 43.0525 10.4499 43.378 12.5741C42.4894 12.4685 41.4054 12.4686 39.9957 12.4688H38.0086ZM34.0118 14.2783C34.8353 14.0391 35.9488 14.0313 38.1562 14.0313H39.8481C42.0555 14.0313 43.1691 14.0391 43.9925 14.2783C44.1439 14.3223 44.2826 14.3738 44.4139 14.434C45.1662 14.7788 45.8063 15.3274 46.2621 16.017L45.689 16.5901C43.9373 18.3418 42.6779 19.5989 41.5917 20.4277C40.5234 21.2427 39.715 21.5696 38.8758 21.5696C38.0366 21.5696 37.2281 21.2427 36.1599 20.4277C35.0736 19.5989 33.8142 18.3418 32.0625 16.5901L31.6449 16.1725C31.6638 16.1401 31.6831 16.1085 31.703 16.0774C32.1609 15.3595 32.8163 14.7889 33.5904 14.434C33.7217 14.3738 33.8604 14.3223 34.0118 14.2783ZM46.866 17.6229C47.0164 18.3183 47.1469 19.2377 47.3284 20.5444C47.5574 22.1937 47.7217 23.3815 47.7707 24.3168C47.8193 25.2444 47.7481 25.8427 47.5571 26.3284C47.1844 27.2763 46.4962 28.0667 45.6085 28.5663C45.1537 28.8223 44.5709 28.9751 43.6455 29.0546C42.7123 29.1348 41.5132 29.1354 39.8481 29.1354H38.1562C36.4911 29.1354 35.292 29.1348 34.3589 29.0546C33.4334 28.9751 32.8506 28.8223 32.3958 28.5663C31.5081 28.0667 30.8199 27.2763 30.4472 26.3284C30.2562 25.8427 30.185 25.2444 30.2336 24.3168C30.2826 23.3815 30.4469 22.1937 30.676 20.5444C30.8395 19.3667 30.9614 18.5029 31.0949 17.8322C32.75 19.4872 34.0547 20.7868 35.2121 21.6699C36.4193 22.591 37.5576 23.1321 38.8758 23.1321C40.1939 23.1321 41.3322 22.591 42.5394 21.6699C43.7189 20.77 45.0513 19.4375 46.7516 17.7372L46.866 17.6229Z" fill="white"/>
</svg>
