<svg width="58" height="39" viewBox="0 0 58 39" fill="none" xmlns="http://www.w3.org/2000/svg">
<ellipse cx="19" cy="19.5" rx="19" ry="19.5" fill="#25143E"/>
<ellipse cx="29" cy="19.5" rx="19" ry="19.5" fill="#3D1462"/>
<ellipse cx="39" cy="19.5" rx="19" ry="19.5" fill="#67169E"/>
<path d="M51.4411 19.2431C48.9736 14.1586 44.2062 11 39 11C33.7938 11 29.0264 14.1586 26.5589 19.2431C26.4804 19.4048 26.4804 19.5952 26.5589 19.7569C29.0264 24.8414 33.7938 28 39 28C44.2062 28 48.9736 24.8414 51.4411 19.7569C51.5196 19.5952 51.5196 19.4048 51.4411 19.2431ZM39 26.8463C34.3111 26.8463 30.0034 24.0393 27.6935 19.5C30.0034 14.9607 34.3111 12.1537 39 12.1537C43.6889 12.1537 47.9967 14.9607 50.3065 19.5C47.9967 24.0393 43.6889 26.8463 39 26.8463Z" fill="white"/>
<path d="M39.0022 14.6013C36.3689 14.6013 34.2266 16.7988 34.2266 19.5C34.2266 22.2011 36.3689 24.3987 39.0022 24.3987C41.6355 24.3987 43.7779 22.2011 43.7779 19.5C43.7779 16.7988 41.6355 14.6013 39.0022 14.6013ZM39.0022 23.245C36.9889 23.245 35.3513 21.5651 35.3513 19.5C35.3513 17.4348 36.9889 15.755 39.0022 15.755C41.0155 15.755 42.6532 17.4348 42.6532 19.5C42.6532 21.5651 41.0155 23.245 39.0022 23.245Z" fill="white"/>
<path d="M38.9979 17.4827C37.9132 17.4827 37.0312 18.3874 37.0312 19.5C37.0312 19.8188 37.2828 20.0768 37.5936 20.0768C37.9044 20.0768 38.156 19.8188 38.156 19.5C38.156 19.024 38.5338 18.6364 38.9979 18.6364C39.3087 18.6364 39.5602 18.3784 39.5602 18.0596C39.5602 17.7407 39.3087 17.4827 38.9979 17.4827Z" fill="white"/>
</svg>
