<svg width="58" height="39" viewBox="0 0 58 39" fill="none" xmlns="http://www.w3.org/2000/svg">
<ellipse cx="19" cy="19.5" rx="19" ry="19.5" fill="#25143E"/>
<ellipse cx="29" cy="19.5" rx="19" ry="19.5" fill="#3D1462"/>
<ellipse cx="39" cy="19.5" rx="19" ry="19.5" fill="#67169E"/>
<path fill-rule="evenodd" clip-rule="evenodd" d="M44.043 13.1617C43.2679 12.3714 42.3843 12.1143 41.5515 12.1753C40.7577 12.2334 40.0608 12.5746 39.5715 12.885C39.3344 13.0354 38.9781 13.0354 38.741 12.885C38.2517 12.5746 37.5548 12.2334 36.761 12.1753C35.9281 12.1143 35.0446 12.3714 34.2695 13.1617C33.3585 14.0908 33.078 15.2398 33.1902 16.3732C33.2999 17.4826 33.7824 18.5868 34.4048 19.545C35.0303 20.5081 35.8292 21.3736 36.6365 22.0059C37.4097 22.6115 38.3194 23.1042 39.1563 23.1042C39.9931 23.1042 40.9028 22.6115 41.6761 22.0059C42.4833 21.3736 43.2822 20.5081 43.9078 19.545C44.5301 18.5868 45.0126 17.4826 45.1223 16.3732C45.2345 15.2398 44.954 14.0908 44.043 13.1617ZM40.4084 14.2045C40.7907 13.9619 41.2336 13.7652 41.6656 13.7336C42.0585 13.7049 42.4866 13.8063 42.9273 14.2557C43.4592 14.7981 43.6424 15.4617 43.5674 16.2194C43.4901 17.001 43.1348 17.8664 42.5974 18.6939C42.0632 19.5165 41.3803 20.2527 40.7126 20.7758C40.0109 21.3254 39.4522 21.5417 39.1563 21.5417C38.8603 21.5417 38.3017 21.3254 37.5999 20.7758C36.9322 20.2527 36.2494 19.5165 35.7151 18.6939C35.1777 17.8664 34.8224 17.001 34.7451 16.2194C34.6701 15.4617 34.8533 14.7981 35.3852 14.2557C35.8259 13.8063 36.254 13.7049 36.6469 13.7336C37.0789 13.7652 37.5217 13.9619 37.9041 14.2045C38.6521 14.679 39.6604 14.679 40.4084 14.2045Z" fill="white"/>
<path fill-rule="evenodd" clip-rule="evenodd" d="M43.6824 8.07355C42.782 7.99999 41.6617 8 40.2329 8H38.0796C36.6508 8 35.5305 7.99999 34.6301 8.07355C33.7133 8.14846 32.9559 8.30352 32.2704 8.65283C31.1434 9.22707 30.2271 10.1434 29.6528 11.2704C29.3035 11.9559 29.1485 12.7133 29.0736 13.6301C29 14.5305 29 15.6508 29 17.0796V21.5191C29 24.1204 31.1088 26.2292 33.7101 26.2292H34.3369C34.5957 26.2292 34.7727 26.4906 34.6766 26.7309C33.9613 28.5191 36.0207 30.1357 37.5879 29.0163L40.3074 27.0738L40.3586 27.0374C41.097 26.517 41.977 26.235 42.8803 26.2293L42.9587 26.2292H42.9884C43.2853 26.2292 43.4644 26.2292 43.6062 26.2225C46.6915 26.0764 49.1597 23.6081 49.3058 20.5228C49.3125 20.3811 49.3125 20.2184 49.3125 19.9513V17.0796C49.3125 15.6508 49.3125 14.5305 49.2389 13.6301C49.164 12.7133 49.009 11.9559 48.6597 11.2704C48.0854 10.1434 47.1691 9.22707 46.0421 8.65283C45.3566 8.30352 44.5992 8.14846 43.6824 8.07355ZM32.9797 10.045C33.4083 9.82666 33.9372 9.69788 34.7574 9.63086C35.5867 9.56311 36.6432 9.5625 38.1146 9.5625H40.1979C41.6693 9.5625 42.7258 9.56311 43.5551 9.63086C44.3753 9.69788 44.9042 9.82666 45.3328 10.045C46.1658 10.4695 46.843 11.1467 47.2675 11.9797C47.4858 12.4083 47.6146 12.9372 47.6816 13.7574C47.7494 14.5867 47.75 15.6432 47.75 17.1146V19.9259C47.75 20.2261 47.7498 20.349 47.745 20.4489C47.6371 22.7294 45.8127 24.5538 43.5323 24.6617C43.4326 24.6664 43.2938 24.6667 42.9587 24.6667L42.8703 24.6668C41.6482 24.6746 40.4576 25.0561 39.4586 25.7601L39.3993 25.8024L36.6797 27.7449C36.3824 27.9573 35.9916 27.6505 36.1274 27.3112C36.634 26.0446 35.7012 24.6667 34.3369 24.6667H33.7101C31.9717 24.6667 30.5625 23.2575 30.5625 21.5191V17.1146C30.5625 15.6432 30.5631 14.5867 30.6309 13.7574C30.6979 12.9372 30.8267 12.4083 31.045 11.9797C31.4695 11.1467 32.1467 10.4695 32.9797 10.045Z" fill="white"/>
</svg>
