<svg width="58" height="39" viewBox="0 0 58 39" fill="none" xmlns="http://www.w3.org/2000/svg">
<ellipse cx="19" cy="19.5" rx="19" ry="19.5" fill="#25143E"/>
<ellipse cx="29" cy="19.5" rx="19" ry="19.5" fill="#3D1462"/>
<ellipse cx="39" cy="19.5" rx="19" ry="19.5" fill="#67169E"/>
<path fill-rule="evenodd" clip-rule="evenodd" d="M35.0794 11.3495L37.4418 10.5057C38.0354 10.2932 38.5047 10.1251 39.0039 10.1251C39.5031 10.1251 39.9724 10.2932 40.566 10.5057L42.9284 11.3495C45.1655 12.1485 46.9236 12.7764 48.1165 13.3934C48.4047 13.5425 48.6827 13.7023 48.9375 13.8772C49.2547 14.0951 49.536 14.3365 49.7566 14.6103C50.0676 14.9962 50.2579 15.4465 50.2579 15.986C50.2579 16.0275 50.2567 16.0685 50.2545 16.1091C50.2229 16.6825 49.9715 17.1523 49.5904 17.5504C49.4593 17.6881 49.3135 17.8164 49.1572 17.9364C48.6344 18.3378 47.9265 18.7008 47.0768 19.0644L47.0768 21.363C47.0771 23.1403 47.0772 24.2249 46.7836 25.1286C46.1912 26.9521 44.7615 28.3817 42.9381 28.9741C42.0344 29.2678 40.9498 29.2676 39.1724 29.2673H38.8353C37.0579 29.2676 35.9733 29.2678 35.0696 28.9741C33.2462 28.3817 31.8166 26.9521 31.2241 25.1286C30.9305 24.2249 30.9306 23.1403 30.9309 21.363L30.9309 19.0631C30.5475 18.899 30.2005 18.7384 29.8914 18.5785C29.712 18.4857 29.5367 18.3888 29.3684 18.2867V23.2776C29.3684 23.7091 29.0186 24.0588 28.5871 24.0588C28.1557 24.0588 27.75 23.7213 27.75 23.2898V15.9859C27.75 14.7565 28.7384 13.9899 29.8913 13.3934C31.0842 12.7764 32.8423 12.1485 35.0794 11.3495ZM29.6025 16.527C29.6416 16.5646 29.6858 16.6038 29.7356 16.6444C29.9293 16.8023 30.2085 16.9833 30.6092 17.1906C31.6968 17.7532 33.3541 18.347 35.67 19.1741L37.8653 19.9581C38.6101 20.2241 38.8096 20.2842 39.0039 20.2842C39.1982 20.2842 39.3977 20.2241 40.1426 19.9581L42.3378 19.1741C44.6537 18.347 46.311 17.7532 47.3986 17.1906C48.5377 16.6014 48.6953 16.2246 48.6953 15.9859C48.6953 15.8801 48.6643 15.7471 48.5305 15.5805C48.4192 15.4418 48.2365 15.2798 47.9412 15.0908C47.7913 14.9948 47.6122 14.8918 47.3987 14.7813C46.3111 14.2187 44.6538 13.6249 42.3378 12.7978L40.1426 12.0138C39.3978 11.7478 39.1982 11.6877 39.004 11.6877C38.8097 11.6877 38.6102 11.7478 37.8653 12.0138L35.6701 12.7978C33.3541 13.6249 31.6968 14.2187 30.6093 14.7813C29.4702 15.3705 29.3126 15.7473 29.3126 15.986L29.3126 15.9874L29.3145 16.0305C29.3254 16.1577 29.3875 16.3201 29.6025 16.527ZM32.4934 21.1944V19.6841C33.2645 19.9742 34.1287 20.2828 35.0794 20.6224L37.4419 21.4662C38.0354 21.6787 38.5048 21.8468 39.004 21.8468C39.5031 21.8468 39.9725 21.6787 40.566 21.4662L42.9614 20.6106C43.9033 20.2742 44.7566 19.9695 45.5143 19.6849V21.1944C45.5143 23.194 45.5046 24.0086 45.2976 24.6458C44.8597 25.9935 43.803 27.0502 42.4552 27.4881C41.818 27.6952 41.0035 27.7048 39.0039 27.7048C37.0042 27.7048 36.1897 27.6952 35.5525 27.4881C34.2047 27.0502 33.148 25.9935 32.7101 24.6458C32.5031 24.0086 32.4934 23.194 32.4934 21.1944Z" fill="white"/>
</svg>
