<svg width="58" height="39" viewBox="0 0 58 39" fill="none" xmlns="http://www.w3.org/2000/svg">
<ellipse cx="19" cy="19.5" rx="19" ry="19.5" fill="#25143E"/>
<ellipse cx="29" cy="19.5" rx="19" ry="19.5" fill="#3D1462"/>
<ellipse cx="39" cy="19.5" rx="19" ry="19.5" fill="#67169E"/>
<g clip-path="url(#clip0_12008_3172)">
<path d="M45.2474 24.4479C45.6789 24.4479 46.0286 24.0981 46.0286 23.6667C46.0286 23.2352 45.6789 22.8854 45.2474 22.8854L38.9974 22.8854C38.5659 22.8854 38.2161 23.2352 38.2161 23.6667C38.2161 24.0981 38.5659 24.4479 38.9974 24.4479L45.2474 24.4479Z" fill="white"/>
<path fill-rule="evenodd" clip-rule="evenodd" d="M45.6068 9.4173C44.7065 9.34374 43.5862 9.34375 42.1574 9.34375H35.8374C34.4086 9.34375 33.2883 9.34374 32.388 9.4173C31.4711 9.49221 30.7137 9.64727 30.0282 9.99658C28.9012 10.5708 27.9849 11.4871 27.4106 12.6141C27.0613 13.2997 26.9063 14.0571 26.8314 14.9739C26.7578 15.8743 26.7578 16.9945 26.7578 18.4234V18.4933C26.7578 19.9222 26.7578 21.0424 26.8314 21.9428C26.9063 22.8596 27.0613 23.617 27.4106 24.3025C27.9849 25.4296 28.9012 26.3458 30.0282 26.9201C30.7137 27.2694 31.4711 27.4245 32.388 27.4994C33.2883 27.5729 34.4085 27.5729 35.8374 27.5729H38.2161V29.4833C37.5658 29.5288 36.9184 29.6311 36.2815 29.7903L34.6412 30.2004C34.2227 30.3051 33.9682 30.7292 34.0728 31.1478C34.1775 31.5664 34.6016 31.8209 35.0202 31.7163L36.6605 31.3062C37.4276 31.1144 38.2125 31.0185 38.9974 31.0185C39.7823 31.0185 40.5672 31.1144 41.3343 31.3062L42.9746 31.7163C43.3932 31.8209 43.8173 31.5664 43.922 31.1478C44.0266 30.7292 43.7721 30.3051 43.3535 30.2004L41.7133 29.7903C41.0764 29.6311 40.429 29.5288 39.7786 29.4833V27.5729H42.1574C43.5862 27.5729 44.7065 27.5729 45.6068 27.4994C46.5237 27.4245 47.2811 27.2694 47.9666 26.9201C49.0936 26.3458 50.0099 25.4296 50.5842 24.3025C50.9335 23.617 51.0885 22.8596 51.1634 21.9428C51.237 21.0424 51.237 19.9222 51.237 18.4934V18.4234C51.237 16.9945 51.237 15.8742 51.1634 14.9739C51.0885 14.0571 50.9335 13.2997 50.5842 12.6141C50.0099 11.4871 49.0936 10.5708 47.9666 9.99658C47.2811 9.64727 46.5237 9.49221 45.6068 9.4173ZM45.4796 25.9421C44.6503 26.0098 43.5938 26.0104 42.1224 26.0104H35.8724C34.401 26.0104 33.3445 26.0098 32.5152 25.9421C31.695 25.875 31.1661 25.7463 30.7375 25.5279C29.9045 25.1035 29.2273 24.4262 28.8028 23.5932C28.5845 23.1646 28.4557 22.6357 28.3887 21.8155C28.3209 20.9862 28.3203 19.9297 28.3203 18.4583C28.3203 16.987 28.3209 15.9304 28.3887 15.1011C28.4557 14.2809 28.5845 13.7521 28.8028 13.3235C29.2273 12.4905 29.9045 11.8132 30.7375 11.3888C31.1661 11.1704 31.695 11.0416 32.5152 10.9746C33.3445 10.9069 34.401 10.9063 35.8724 10.9063H42.1224C43.5938 10.9063 44.6503 10.9069 45.4796 10.9746C46.2998 11.0416 46.8287 11.1704 47.2572 11.3888C48.0903 11.8132 48.7675 12.4905 49.192 13.3235C49.4103 13.7521 49.5391 14.2809 49.6061 15.1011C49.6739 15.9304 49.6745 16.987 49.6745 18.4583C49.6745 19.9297 49.6739 20.9862 49.6061 21.8155C49.5391 22.6357 49.4103 23.1646 49.192 23.5932C48.7675 24.4262 48.0903 25.1035 47.2572 25.5279C46.8287 25.7463 46.2998 25.875 45.4796 25.9421Z" fill="white"/>
<path d="M34.8307 23.6667C34.8307 24.242 34.3644 24.7083 33.7891 24.7083C33.2138 24.7083 32.7474 24.242 32.7474 23.6667C32.7474 23.0914 33.2138 22.625 33.7891 22.625C34.3644 22.625 34.8307 23.0914 34.8307 23.6667Z" fill="white"/>
</g>
<defs>
<clipPath id="clip0_12008_3172">
<rect width="25" height="25" fill="white" transform="translate(26.5 7)"/>
</clipPath>
</defs>
</svg>
