<svg width="58" height="39" viewBox="0 0 58 39" fill="none" xmlns="http://www.w3.org/2000/svg">
<ellipse cx="19" cy="19.5" rx="19" ry="19.5" fill="#25143E"/>
<ellipse cx="29" cy="19.5" rx="19" ry="19.5" fill="#3D1462"/>
<ellipse cx="39" cy="19.5" rx="19" ry="19.5" fill="#67169E"/>
<path d="M37.1035 14.5288L37.9237 14.3237C38.6286 14.1475 39.3662 14.1475 40.0711 14.3237L40.8912 14.5288C41.3098 14.6334 41.734 14.3789 41.8387 13.9603C41.9433 13.5417 41.6888 13.1176 41.2702 13.0129L40.4501 12.8079C39.4963 12.5694 38.4985 12.5694 37.5447 12.8079L36.7246 13.0129C36.306 13.1176 36.0515 13.5417 36.1561 13.9603C36.2608 14.3789 36.685 14.6334 37.1035 14.5288Z" fill="white"/>
<path d="M37.6819 18.1578L37.9268 18.0762C38.6217 17.8446 39.373 17.8446 40.068 18.0762L40.3128 18.1578C40.7222 18.2943 41.1646 18.0731 41.3011 17.6637C41.4375 17.2544 41.2163 16.812 40.8069 16.6755L40.5621 16.5939C39.5464 16.2553 38.4484 16.2553 37.4327 16.5939L37.1878 16.6755C36.7785 16.812 36.5573 17.2544 36.6937 17.6637C36.8302 18.0731 37.2726 18.2943 37.6819 18.1578Z" fill="white"/>
<path fill-rule="evenodd" clip-rule="evenodd" d="M38.9974 8.30209C36.2647 8.30209 34.0495 10.5174 34.0495 13.25V17.4167C34.0495 20.1493 36.2647 22.3646 38.9974 22.3646C41.7301 22.3646 43.9453 20.1493 43.9453 17.4167V13.25C43.9453 10.5174 41.7301 8.30209 38.9974 8.30209ZM35.612 13.25C35.612 11.3803 37.1277 9.86459 38.9974 9.86459C40.8671 9.86459 42.3828 11.3803 42.3828 13.25V17.4167C42.3828 19.2864 40.8671 20.8021 38.9974 20.8021C37.1277 20.8021 35.612 19.2864 35.612 17.4167V13.25Z" fill="white"/>
<path d="M31.4453 17.4167C31.4453 16.9852 31.0955 16.6354 30.6641 16.6354C30.2326 16.6354 29.8828 16.9852 29.8828 17.4167C29.8828 22.1874 33.548 26.102 38.2161 26.4982V28.8261C37.9907 28.8557 37.7665 28.8983 37.5447 28.9537L36.7246 29.1588C36.306 29.2634 36.0515 29.6876 36.1561 30.1062C36.2608 30.5247 36.685 30.7792 37.1035 30.6746L37.9237 30.4696C38.2762 30.3814 38.6368 30.3374 38.9974 30.3374C39.358 30.3374 39.7186 30.3814 40.0711 30.4696L40.8912 30.6746C41.3098 30.7792 41.734 30.5247 41.8387 30.1062C41.9433 29.6876 41.6888 29.2634 41.2702 29.1588L40.4501 28.9537C40.2283 28.8983 40.0041 28.8557 39.7786 28.8261V26.4982C44.4468 26.102 48.112 22.1874 48.112 17.4167C48.112 16.9852 47.7622 16.6354 47.3307 16.6354C46.8993 16.6354 46.5495 16.9852 46.5495 17.4167C46.5495 21.5876 43.1683 24.9688 38.9974 24.9688C34.8265 24.9688 31.4453 21.5876 31.4453 17.4167Z" fill="white"/>
</svg>
