<svg width="17" height="13" viewBox="0 0 17 13" fill="none" xmlns="http://www.w3.org/2000/svg">
<path d="M9.53242 0.425741C9.13006 0.327328 8.72411 0.573719 8.6257 0.976072C8.52729 1.37842 8.77368 1.78438 9.17603 1.88279L11.5871 2.47253C12.5657 2.71187 13.2377 2.87742 13.7354 3.06084C13.8971 3.12045 14.0302 3.17849 14.1411 3.23619L1.25713 10.9777C0.902079 11.191 0.787196 11.6518 1.00053 12.0068C1.21387 12.3619 1.67464 12.4768 2.02969 12.2634L14.9137 4.52194C14.9126 4.64698 14.9013 4.79176 14.878 4.96254C14.8063 5.48805 14.637 6.15916 14.3889 7.13552L13.7777 9.54125C13.6757 9.94271 13.9185 10.3508 14.3199 10.4528C14.7214 10.5548 15.1295 10.3121 15.2315 9.91062L15.8538 7.46154C16.0881 6.53914 16.2797 5.78526 16.3643 5.16528C16.4522 4.52057 16.4398 3.92728 16.189 3.35688C16.134 3.23182 16.0712 3.11052 16.001 2.99367C15.9307 2.87682 15.8531 2.76441 15.7685 2.65715C15.3826 2.1679 14.8646 1.87841 14.2541 1.65339C13.667 1.437 12.9114 1.2522 11.9869 1.0261L9.53242 0.425741Z" fill="white" fill-opacity="0.7"/>
</svg>
