<svg width="18" height="12" viewBox="0 0 18 12" fill="none" xmlns="http://www.w3.org/2000/svg">
<path d="M4.47204 11.5312C4.76624 11.8228 5.24111 11.8207 5.53269 11.5265C5.82427 11.2323 5.82216 10.7574 5.52796 10.4658L3.76499 8.71854C3.0495 8.0094 2.55869 7.52136 2.22659 7.10783C2.11867 6.97344 2.03446 6.85513 1.96908 6.74854L17 6.74853C17.4142 6.74853 17.75 6.41275 17.75 5.99853C17.75 5.58432 17.4142 5.24853 17 5.24853L1.96908 5.24854C2.03446 5.14194 2.11867 5.02363 2.22659 4.88924C2.55869 4.47571 3.0495 3.98767 3.76499 3.27853L5.52796 1.53123C5.82216 1.23964 5.82427 0.764773 5.53269 0.470576C5.24111 0.176379 4.76624 0.174261 4.47204 0.465844L2.6773 2.24464C2.00133 2.91458 1.44886 3.46212 1.05706 3.95C0.649628 4.45732 0.354694 4.97226 0.275909 5.59037C0.258636 5.72589 0.25 5.86221 0.25 5.99854C0.25 6.13486 0.258636 6.27118 0.275909 6.4067C0.354694 7.02481 0.649628 7.53975 1.05706 8.04708C1.44886 8.53495 2.00134 9.0825 2.67732 9.75245L4.47204 11.5312Z" fill="white" fill-opacity="0.7"/>
</svg>
