<svg width="16" height="17" viewBox="0 0 16 17" fill="none" xmlns="http://www.w3.org/2000/svg">
<path d="M16 1.85184V1.16612C16 0.797143 15.7029 0.5 15.3339 0.5H14.6482C11.7551 0.5 9.16245 2.22408 8 4.80694C6.83755 2.22408 4.2449 0.5 1.35184 0.5H0.666122C0.297143 0.5 0 0.797143 0 1.16612V1.85184C0 4.7449 1.72408 7.33755 4.30694 8.5C1.72408 9.66245 0 12.2551 0 15.1482V15.8339C0 16.2029 0.297143 16.5 0.666122 16.5H1.35184C4.2449 16.5 6.83755 14.7759 8 12.1963C9.16245 14.7759 11.7551 16.5 14.6482 16.5H15.3339C15.7029 16.5 16 16.2029 16 15.8339V15.1482C16 12.2551 14.2759 9.66245 11.6963 8.5C14.2759 7.33755 16 4.7449 16 1.85184ZM8 10.3057C7.00408 10.3057 6.19429 9.49592 6.19429 8.5C6.19429 7.50408 7.00408 6.69429 8 6.69429C8.99592 6.69429 9.80571 7.50408 9.80571 8.5C9.80571 9.49592 8.99592 10.3057 8 10.3057ZM1.33224 1.85184V1.83224H1.35184C3.79429 1.83224 5.97878 3.33755 6.87673 5.56775C6.04735 5.88775 5.38775 6.54735 5.07102 7.37347C2.84082 6.47878 1.33224 4.29755 1.33224 1.85184ZM1.35184 15.1678H1.33224V15.1482C1.33224 12.7057 2.83755 10.5212 5.06775 9.62326C5.38775 10.4527 6.04735 11.1122 6.87347 11.429C5.97878 13.6592 3.79755 15.1678 1.35184 15.1678ZM14.6678 15.1482V15.1678H14.6482C12.2057 15.1678 10.0212 13.6624 9.12326 11.4322C9.95265 11.1122 10.6122 10.4527 10.929 9.62653C13.1592 10.5212 14.6678 12.7024 14.6678 15.1482ZM10.9322 7.37673C10.6122 6.54735 9.95265 5.88775 9.12653 5.57102C10.0212 3.34082 12.2024 1.83224 14.6482 1.83224H14.6678V1.85184C14.6678 4.29755 13.1592 6.47878 10.9322 7.37673Z" fill="url(#paint0_linear_12008_2998)"/>
<defs>
<linearGradient id="paint0_linear_12008_2998" x1="0" y1="8.5" x2="16" y2="8.5" gradientUnits="userSpaceOnUse">
<stop stop-color="#67169E"/>
<stop offset="1" stop-color="#260040"/>
</linearGradient>
</defs>
</svg>
