<svg width="16" height="16" viewBox="0 0 16 16" fill="none" xmlns="http://www.w3.org/2000/svg">
<path d="M8.72419 1.27772L10.416 4.70577C10.5336 4.9442 10.7611 5.10941 11.0243 5.14758L14.8074 5.69733C15.4702 5.7937 15.7345 6.60785 15.2552 7.075L12.5177 9.74334C12.3275 9.92889 12.2405 10.1964 12.2855 10.4583L12.9317 14.2262C13.0449 14.886 12.3522 15.3892 11.7596 15.0778L8.37594 13.2991C8.14065 13.1755 7.85935 13.1755 7.62406 13.2991L4.24044 15.0778C3.64782 15.3895 2.95508 14.886 3.06834 14.2262L3.71447 10.4583C3.75952 10.1964 3.67254 9.92889 3.4823 9.74334L0.744804 7.075C0.265453 6.60753 0.529847 5.79339 1.19255 5.69733L4.97574 5.14758C5.23888 5.10941 5.46635 4.9442 5.584 4.70577L7.27581 1.27772C7.57181 0.677282 8.42788 0.677282 8.72419 1.27772Z" fill="#67169E"/>
</svg>
